<svg xmlns="http://www.w3.org/2000/svg" xmlns:xlink="http://www.w3.org/1999/xlink" width="219.22px" height="58.7614731px" viewBox="0 0 219.22 58.7614731"><title>FAUNALYTICS_SOURCE</title><defs><polygon id="path-1" points="0 0 31.4046 0 31.4046 16.3642 0 16.3642"></polygon></defs><g id="ACTIVE" stroke="none" stroke-width="1" fill="none" fill-rule="evenodd"><g id="GETTING_STARTED_DESIGN_A_STUDY" transform="translate(-460, -1391)"><g id="FAUNALYTICS_SOURCE" transform="translate(460, 1391)"><g id="Group-3" transform="translate(0, 42.3973)"><mask id="mask-2" fill="white"><use xlink:href="#path-1"></use></mask><g id="Clip-2"></g><path d="M26.1736,8.442 C27.5866,9.408 29.3236,10.812 31.4046,11.736 L28.9106,0 L0.0356,7.797 C0.0356,7.797 -0.9904,10.443 7.9636,9.603 C7.9636,9.603 7.8246,12.564 11.7236,11.673 C11.7236,11.673 10.1186,17.621 12.4976,16.122 C13.6526,15.394 19.4106,11.169 26.1736,8.442" id="Fill-1" fill="#254C59" mask="url(#mask-2)"></path></g><path d="M43.2153,56.8242731 L37.3323,29.1482731 C37.3323,29.1482731 36.6723,26.0412731 33.5643,26.7012731 L30.7263,27.3042731 C30.7263,27.3042731 27.6193,27.9652731 28.2793,31.0722731 L33.3003,54.6952731 C36.4013,55.9032731 39.4643,56.7052731 43.2153,56.8242731" id="Fill-4" fill="#6FA95D"></path><path d="M54.1743,55.5122731 L45.6223,15.2792731 C45.6223,15.2792731 44.9623,12.1722731 41.8553,12.8322731 L39.0163,13.4352731 C39.0163,13.4352731 35.9093,14.0962731 36.5703,17.2032731 L44.9943,56.8372731 C47.3553,56.7962731 49.3243,56.6272731 51.7853,56.1042731 C52.5973,55.9312731 53.3913,55.7312731 54.1743,55.5122731" id="Fill-6" fill="#F68D28"></path><path d="M64.3842,50.6772731 L54.1522,2.53827309 C54.1522,2.53827309 53.4922,-0.568726907 50.3852,0.0922730932 L47.5462,0.695273093 C47.5462,0.695273093 44.4392,1.35527309 45.1002,4.46227309 L55.8442,55.0092731 C59.1902,53.9092731 61.7602,52.4892731 64.3842,50.6772731" id="Fill-8" fill="#E74B38"></path><path d="M71.8163,36.4942731 C71.2813,36.6082731 70.7553,36.2662731 70.6413,35.7312731 C70.5273,35.1962731 70.8693,34.6702731 71.4043,34.5562731 C71.9393,34.4422731 72.4653,34.7842731 72.5793,35.3192731 C72.6933,35.8542731 72.3513,36.3802731 71.8163,36.4942731 M80.1663,33.3512731 C77.1953,33.0022731 75.3893,32.9982731 74.3343,33.0662731 C71.3603,30.5152731 65.1823,31.2652731 62.0723,32.3132731 L65.7573,49.6512731 C70.0253,46.6482731 74.3143,41.8192731 75.1283,39.9342731 C75.6603,38.8172731 75.8953,37.6022731 75.8183,36.4482731 C77.5023,35.0032731 80.1663,33.3512731 80.1663,33.3512731" id="Fill-10" fill="#254C59"></path><path d="M86.1587,39.6588731 L84.3127,39.6588731 L84.3127,37.9178731 L86.1587,37.9178731 L86.1587,36.7468731 C86.1587,35.2138731 86.5747,34.0438731 87.3287,33.2888731 C88.0047,32.6128731 88.9927,32.2488731 90.2147,32.2488731 C91.1507,32.2488731 91.7747,32.3528731 92.4247,32.5878731 L92.4247,34.3288731 C91.6967,34.1208731 91.1507,33.9908731 90.4747,33.9908731 C88.9147,33.9908731 88.1347,34.9278731 88.1347,36.8508731 L88.1347,37.9428731 L92.3987,37.9428731 L92.3987,39.6588731 L88.1607,39.6588731 L88.1607,51.3338731 L86.1587,51.3338731 L86.1587,39.6588731 Z" id="Fill-12" fill="#254C59"></path><path d="M103.8384,46.3932731 L103.8384,45.0932731 C102.8504,44.8072731 101.5244,44.5212731 99.8864,44.5212731 C97.3644,44.5212731 95.9604,45.6132731 95.9604,47.3032731 L95.9604,47.3552731 C95.9604,49.0452731 97.5204,50.0342731 99.3404,50.0342731 C101.8104,50.0342731 103.8384,48.5252731 103.8384,46.3932731 M93.9324,47.4332731 L93.9324,47.3812731 C93.9324,44.5472731 96.2724,43.0392731 99.6784,43.0392731 C101.3944,43.0392731 102.6164,43.2732731 103.8124,43.6112731 L103.8124,43.1432731 C103.8124,40.7252731 102.3304,39.4772731 99.8084,39.4772731 C98.2224,39.4772731 96.9744,39.8932731 95.7264,40.4652731 L95.1284,38.8272731 C96.6094,38.1512731 98.0664,37.7082731 100.0164,37.7082731 C101.9144,37.7082731 103.3704,38.2032731 104.3584,39.1912731 C105.2684,40.1012731 105.7364,41.4012731 105.7364,43.1172731 L105.7364,51.3332731 L103.8124,51.3332731 L103.8124,49.3052731 C102.8764,50.5282731 101.3164,51.6202731 98.9504,51.6202731 C96.4544,51.6202731 93.9324,50.1892731 93.9324,47.4332731" id="Fill-14" fill="#254C59"></path><path d="M109.7925,46.2379731 L109.7925,37.8909731 L111.7935,37.8909731 L111.7935,45.7439731 C111.7935,48.2399731 113.1465,49.7999731 115.5115,49.7999731 C117.7995,49.7999731 119.5425,48.1089731 119.5425,45.5879731 L119.5425,37.8909731 L121.5185,37.8909731 L121.5185,51.3339731 L119.5425,51.3339731 L119.5425,48.9939731 C118.6315,50.4499731 117.2535,51.6199731 114.9395,51.6199731 C111.6905,51.6199731 109.7925,49.4349731 109.7925,46.2379731" id="Fill-16" fill="#254C59"></path><path d="M126.0156,37.8913731 L128.0176,37.8913731 L128.0176,40.2313731 C128.9016,38.7753731 130.3056,37.6053731 132.6196,37.6053731 C135.8696,37.6053731 137.7676,39.7883731 137.7676,42.9873731 L137.7676,51.3333731 L135.7656,51.3333731 L135.7656,43.4813731 C135.7656,40.9853731 134.4136,39.4253731 132.0476,39.4253731 C129.7336,39.4253731 128.0176,41.1153731 128.0176,43.6373731 L128.0176,51.3333731 L126.0156,51.3333731 L126.0156,37.8913731 Z" id="Fill-18" fill="#254C59"></path><path d="M150.9238,46.3932731 L150.9238,45.0932731 C149.9358,44.8072731 148.6098,44.5212731 146.9708,44.5212731 C144.4488,44.5212731 143.0448,45.6132731 143.0448,47.3032731 L143.0448,47.3552731 C143.0448,49.0452731 144.6058,50.0342731 146.4248,50.0342731 C148.8958,50.0342731 150.9238,48.5252731 150.9238,46.3932731 M141.0168,47.4332731 L141.0168,47.3812731 C141.0168,44.5472731 143.3578,43.0392731 146.7638,43.0392731 C148.4798,43.0392731 149.7008,43.2732731 150.8978,43.6112731 L150.8978,43.1432731 C150.8978,40.7252731 149.4148,39.4772731 146.8938,39.4772731 C145.3068,39.4772731 144.0588,39.8932731 142.8108,40.4652731 L142.2128,38.8272731 C143.6948,38.1512731 145.1518,37.7082731 147.1018,37.7082731 C148.9988,37.7082731 150.4548,38.2032731 151.4438,39.1912731 C152.3538,40.1012731 152.8208,41.4012731 152.8208,43.1172731 L152.8208,51.3332731 L150.8978,51.3332731 L150.8978,49.3052731 C149.9608,50.5282731 148.4018,51.6202731 146.0348,51.6202731 C143.5388,51.6202731 141.0168,50.1892731 141.0168,47.4332731" id="Fill-20" fill="#254C59"></path><polygon id="Fill-22" fill="#254C59" points="157.58 51.3334731 158.854 51.3334731 158.854 32.3534731 157.58 32.3534731"></polygon><path d="M174.2461,38.0729731 L175.6501,38.0729731 L169.9041,51.8019731 C168.7341,54.5839731 167.3831,55.5719731 165.4841,55.5719731 C164.4711,55.5719731 163.7421,55.3899731 162.8581,54.9999731 L163.3001,53.8819731 C164.0021,54.2189731 164.5741,54.3759731 165.5621,54.3759731 C166.9401,54.3759731 167.8501,53.5699731 168.8381,51.2559731 L162.4681,38.0729731 L163.9501,38.0729731 L169.4631,49.9289731 L174.2461,38.0729731 Z" id="Fill-24" fill="#254C59"></path><path d="M179.8623,47.9274731 L179.8623,39.2424731 L177.9383,39.2424731 L177.9383,38.0734731 L179.8623,38.0734731 L179.8623,33.8354731 L181.1363,33.8354731 L181.1363,38.0734731 L185.7913,38.0734731 L185.7913,39.2424731 L181.1363,39.2424731 L181.1363,47.7974731 C181.1363,49.6964731 182.2543,50.3714731 183.7883,50.3714731 C184.4383,50.3714731 184.9843,50.2414731 185.7383,49.9044731 L185.7383,51.0994731 C185.0623,51.4114731 184.4123,51.5684731 183.5803,51.5684731 C181.5263,51.5684731 179.8623,50.4494731 179.8623,47.9274731" id="Fill-25" fill="#254C59"></path><path d="M189.742,51.3344731 L191.015,51.3344731 L191.015,38.0734731 L189.742,38.0734731 L189.742,51.3344731 Z M189.586,34.6144731 L191.172,34.6144731 L191.172,32.8724731 L189.586,32.8724731 L189.586,34.6144731 Z" id="Fill-26" fill="#254C59"></path><path d="M194.5977,44.7555731 L194.5977,44.7035731 C194.5977,40.9845731 197.5627,37.7615731 201.3587,37.7615731 C203.8547,37.7615731 205.4137,38.9045731 206.6617,40.2045731 L205.7517,41.1415731 C204.6087,39.9715731 203.3087,38.9565731 201.3317,38.9565731 C198.3167,38.9565731 195.9757,41.4795731 195.9757,44.6515731 L195.9757,44.7035731 C195.9757,47.9015731 198.3947,50.4495731 201.4367,50.4495731 C203.3087,50.4495731 204.7647,49.4875731 205.8827,48.2395731 L206.7667,49.0195731 C205.4137,50.5535731 203.8027,51.6465731 201.3587,51.6465731 C197.5357,51.6465731 194.5977,48.4735731 194.5977,44.7555731" id="Fill-27" fill="#254C59"></path><path d="M209.21,49.6696731 L209.964,48.6556731 C211.42,49.7736731 213.031,50.3986731 214.722,50.3986731 C216.516,50.3986731 217.92,49.4096731 217.92,47.8756731 L217.92,47.8236731 C217.92,46.2636731 216.256,45.6906731 214.41,45.1716731 C212.252,44.5476731 209.859,43.8976731 209.859,41.5306731 L209.859,41.4796731 C209.859,39.3476731 211.653,37.8136731 214.228,37.8136731 C215.814,37.8136731 217.607,38.3856731 218.934,39.2696731 L218.258,40.3356731 C217.036,39.5286731 215.58,39.0096731 214.176,39.0096731 C212.356,39.0096731 211.16,39.9976731 211.16,41.3226731 L211.16,41.3756731 C211.16,42.8576731 212.954,43.4026731 214.852,43.9486731 C216.984,44.5476731 219.22,45.3276731 219.22,47.6676731 L219.22,47.7196731 C219.22,50.0856731 217.191,51.5936731 214.644,51.5936731 C212.72,51.5936731 210.613,50.8146731 209.21,49.6696731" id="Fill-28" fill="#254C59"></path></g></g></g></svg>